<svg width="80" height="88" viewBox="0 0 80 88" fill="none" xmlns="http://www.w3.org/2000/svg">
<foreignObject x="-5" y="2.83972" width="90" height="89.7908"><div xmlns="http://www.w3.org/1999/xhtml" style="backdrop-filter:blur(2.5px);clip-path:url(#bgblur_0_6_75_clip_path);height:100%;width:100%"></div></foreignObject><g data-figma-bg-blur-radius="5">
<path d="M40 8.33972C61.7592 8.33972 79.5 25.9795 79.5 47.7352C79.4999 69.491 61.7591 87.1307 40 87.1307C18.2409 87.1307 0.500056 69.491 0.5 47.7352C0.5 25.9795 18.2408 8.33972 40 8.33972Z" fill="url(#paint0_radial_6_75)"/>
<path d="M40 8.33972C61.7592 8.33972 79.5 25.9795 79.5 47.7352C79.4999 69.491 61.7591 87.1307 40 87.1307C18.2409 87.1307 0.500056 69.491 0.5 47.7352C0.5 25.9795 18.2408 8.33972 40 8.33972Z" stroke="url(#paint1_radial_6_75)"/>
<path d="M40 8.33972C61.7592 8.33972 79.5 25.9795 79.5 47.7352C79.4999 69.491 61.7591 87.1307 40 87.1307C18.2409 87.1307 0.500056 69.491 0.5 47.7352C0.5 25.9795 18.2408 8.33972 40 8.33972Z" stroke="url(#paint2_radial_6_75)"/>
<path d="M40 8.33972C61.7592 8.33972 79.5 25.9795 79.5 47.7352C79.4999 69.491 61.7591 87.1307 40 87.1307C18.2409 87.1307 0.500056 69.491 0.5 47.7352C0.5 25.9795 18.2408 8.33972 40 8.33972Z" stroke="url(#paint3_radial_6_75)"/>
</g>
<g filter="url(#filter1_f_6_75)">
<ellipse cx="39.7435" cy="29.3219" rx="25.3846" ry="16.3673" fill="url(#paint4_radial_6_75)" fill-opacity="0.2"/>
</g>
<path d="M35.022 35.3952C34.3619 35.3952 33.7289 35.6574 33.2621 36.1242C32.7954 36.5909 32.5331 37.224 32.5331 37.8841C32.5331 38.5442 32.7954 39.1772 33.2621 39.644C33.7289 40.1108 34.3619 40.373 35.022 40.373H48.925L45.7068 43.5911C45.2535 44.0605 45.0026 44.6892 45.0083 45.3418C45.0139 45.9944 45.2757 46.6186 45.7371 47.0801C46.1986 47.5415 46.8228 47.8033 47.4754 47.809C48.128 47.8146 48.7567 47.5638 49.2261 47.1104L56.6928 39.6437C57.1594 39.177 57.4215 38.5441 57.4215 37.8841C57.4215 37.2241 57.1594 36.5912 56.6928 36.1244L49.2261 28.6578C48.9965 28.4201 48.7219 28.2305 48.4182 28.1C48.1146 27.9696 47.788 27.9009 47.4575 27.898C47.127 27.8952 46.7993 27.9581 46.4934 28.0833C46.1876 28.2084 45.9097 28.3932 45.676 28.6269C45.4423 28.8606 45.2575 29.1385 45.1323 29.4444C45.0072 29.7503 44.9442 30.078 44.9471 30.4085C44.95 30.7389 45.0186 31.0655 45.1491 31.3692C45.2795 31.6728 45.4691 31.9475 45.7068 32.1771L48.925 35.3952H35.022Z" fill="url(#paint5_linear_6_75)"/>
<path d="M44.9776 60.2841C45.6377 60.2841 46.2707 60.0219 46.7375 59.5551C47.2043 59.0883 47.4665 58.4553 47.4665 57.7952C47.4665 57.1351 47.2043 56.502 46.7375 56.0353C46.2707 55.5685 45.6377 55.3063 44.9776 55.3063H31.0747L34.2928 52.0882C34.5305 51.8586 34.7201 51.5839 34.8506 51.2803C34.981 50.9766 35.0497 50.65 35.0525 50.3196C35.0554 49.9891 34.9924 49.6614 34.8673 49.3555C34.7421 49.0496 34.5573 48.7717 34.3236 48.538C34.09 48.3043 33.8121 48.1195 33.5062 47.9944C33.2003 47.8693 32.8726 47.8063 32.5421 47.8092C32.2116 47.812 31.885 47.8807 31.5814 48.0111C31.2777 48.1416 31.0031 48.3312 30.7735 48.5689L23.3068 56.0356C22.8402 56.5023 22.5781 57.1352 22.5781 57.7952C22.5781 58.4552 22.8402 59.0881 23.3068 59.5548L30.7735 67.0215C31.2429 67.4749 31.8716 67.7257 32.5242 67.7201C33.1768 67.7144 33.801 67.4526 34.2625 66.9912C34.7239 66.5297 34.9857 65.9055 34.9914 65.2529C34.997 64.6003 34.7462 63.9716 34.2928 63.5022L31.0747 60.2841H44.9776Z" fill="url(#paint6_linear_6_75)"/>
<defs>
<clipPath id="bgblur_0_6_75_clip_path" transform="translate(5 -2.83972)"><path d="M40 8.33972C61.7592 8.33972 79.5 25.9795 79.5 47.7352C79.4999 69.491 61.7591 87.1307 40 87.1307C18.2409 87.1307 0.500056 69.491 0.5 47.7352C0.5 25.9795 18.2408 8.33972 40 8.33972Z"/>
</clipPath><filter id="filter1_f_6_75" x="1.40435" y="5.53131e-05" width="76.6784" height="58.6438" filterUnits="userSpaceOnUse" color-interpolation-filters="sRGB">
<feFlood flood-opacity="0" result="BackgroundImageFix"/>
<feBlend mode="normal" in="SourceGraphic" in2="BackgroundImageFix" result="shape"/>
<feGaussianBlur stdDeviation="6.47727" result="effect1_foregroundBlur_6_75"/>
</filter>
<radialGradient id="paint0_radial_6_75" cx="0" cy="0" r="1" gradientTransform="matrix(80 88.6775 -88.9099 30.9913 6.69204 7.83972)" gradientUnits="userSpaceOnUse">
<stop stop-color="white" stop-opacity="0.36"/>
<stop offset="1" stop-color="white" stop-opacity="0"/>
</radialGradient>
<radialGradient id="paint1_radial_6_75" cx="0" cy="0" r="1" gradientTransform="matrix(75.4483 52.9093 -53.048 29.228 -42.5965 16.0025)" gradientUnits="userSpaceOnUse">
<stop stop-color="white"/>
<stop offset="1" stop-color="white" stop-opacity="0.06"/>
</radialGradient>
<radialGradient id="paint2_radial_6_75" cx="0" cy="0" r="1" gradientTransform="matrix(-63.3459 21.3366 -69.4701 -24.273 103.421 61.2405)" gradientUnits="userSpaceOnUse">
<stop stop-color="#7C3AED"/>
<stop offset="1" stop-color="#7C3AED" stop-opacity="0"/>
</radialGradient>
<radialGradient id="paint3_radial_6_75" cx="0" cy="0" r="1" gradientTransform="matrix(30.3238 32.7638 -32.8497 11.7472 40.871 -10.3962)" gradientUnits="userSpaceOnUse">
<stop/>
<stop offset="1" stop-color="white" stop-opacity="0"/>
</radialGradient>
<radialGradient id="paint4_radial_6_75" cx="0" cy="0" r="1" gradientTransform="matrix(0 24.2566 -37.625 0.426854 39.7435 12.9546)" gradientUnits="userSpaceOnUse">
<stop stop-color="white"/>
<stop offset="1" stop-color="white" stop-opacity="0"/>
</radialGradient>
<linearGradient id="paint5_linear_6_75" x1="28.9298" y1="87.2165" x2="80.7249" y2="51.9268" gradientUnits="userSpaceOnUse">
<stop stop-color="#7C3AED"/>
<stop offset="0.572917" stop-color="#7C3AED"/>
<stop offset="0.895833" stop-color="#7C3AED" stop-opacity="0"/>
</linearGradient>
<linearGradient id="paint6_linear_6_75" x1="28.9298" y1="87.2165" x2="80.7249" y2="51.9268" gradientUnits="userSpaceOnUse">
<stop stop-color="#7C3AED"/>
<stop offset="0.572917" stop-color="#7C3AED"/>
<stop offset="0.895833" stop-color="#7C3AED" stop-opacity="0"/>
</linearGradient>
</defs>
</svg>
