<svg width="25" height="38" viewBox="0 0 25 38" fill="none" xmlns="http://www.w3.org/2000/svg">
<path d="M21.7143 0H2.71429C1.99441 0 1.30402 0.285968 0.794996 0.794996C0.285969 1.30402 0 1.99441 0 2.71429V35.2857C0 36.0056 0.285969 36.696 0.794996 37.205C1.30402 37.714 1.99441 38 2.71429 38H21.7143C22.4342 38 23.1245 37.714 23.6336 37.205C24.1426 36.696 24.4286 36.0056 24.4286 35.2857V2.71429C24.4286 1.99441 24.1426 1.30402 23.6336 0.794996C23.1245 0.285968 22.4342 0 21.7143 0ZM13.5714 35.2857H10.8571V32.5714H13.5714V35.2857ZM2.71429 29.8571V2.71429H21.7143V29.8571H2.71429Z" fill="white"/>
</svg>
