<svg width="38" height="37" viewBox="0 0 38 37" fill="none" xmlns="http://www.w3.org/2000/svg">
<path d="M17.1543 0.544168L2.74957 9.62048H1.35714C0.610714 9.62048 0 10.2365 0 10.9895C0 11.7424 0.610714 12.3571 1.35579 12.3584V15.0964C0.609357 15.0964 0 15.7124 0 16.4654C0 17.2183 0.610714 17.8343 1.35714 17.8343H2.71429V31.5241C2.33864 31.5383 1.98308 31.6988 1.72238 31.972C1.46168 32.2452 1.31617 32.6097 1.31643 32.9889V34.262H1.45214C0.651429 34.262 0 34.9192 0 35.7269V37H37.9864V35.7269C37.9864 34.9192 37.335 34.262 36.5343 34.262H36.6429V32.9889C36.643 32.6169 36.5028 32.2589 36.2507 31.9873C35.9987 31.7158 35.6537 31.5512 35.2857 31.5268V17.833H36.6429C37.3893 17.833 38 17.2169 38 16.464C38 15.7111 37.3893 15.095 36.6429 15.095L36.6415 12.3571C37.3879 12.3571 38 11.741 38 10.9881C38 10.2352 37.3893 9.61911 36.6429 9.61911H35.3047L20.9 0.544168C19.76 -0.181389 18.2943 -0.181389 17.1543 0.544168ZM18.3214 11.7561V11.0168C18.1202 10.9899 17.9238 10.9346 17.7379 10.8526C17.3579 10.7157 17.0457 10.4692 16.8014 10.1407C16.7232 10.0291 16.6849 9.89387 16.6929 9.75738C16.6929 9.70992 16.6974 9.66429 16.7064 9.62048C16.7465 9.45215 16.8484 9.3054 16.9914 9.20979C17.2764 9.03182 17.5886 9.07289 17.8464 9.33299C17.9827 9.48265 18.1433 9.60767 18.3214 9.70262C18.3287 9.70901 18.3377 9.71357 18.3486 9.71631H18.354C18.5749 9.81379 18.8132 9.86457 19.0543 9.86553C19.4261 9.8491 19.5605 9.73137 19.6107 9.61911C19.6379 9.55614 19.6379 9.4959 19.6379 9.45483C19.6379 9.33162 19.5836 9.2358 19.4614 9.16735C19.3121 9.08521 19.0543 8.98938 18.7286 8.90724C18.5918 8.86975 18.4561 8.82867 18.3214 8.78403L18.1857 8.73749C18.0603 8.69857 17.9378 8.65053 17.8193 8.59375C17.5614 8.48423 17.3443 8.31995 17.1679 8.08722C16.9779 7.8545 16.8829 7.55332 16.8829 7.17001C16.8829 6.82777 16.9779 6.54028 17.1814 6.28018C17.3579 6.03376 17.6021 5.85579 17.9143 5.7189C18.05 5.66414 18.1857 5.60938 18.3214 5.582V4.76061C18.3214 4.43206 18.5929 4.14457 18.9321 4.14457H19.0271C19.3664 4.14457 19.6379 4.43206 19.6379 4.76061V5.63676C19.703 5.64634 19.76 5.66688 19.8197 5.68741L19.8686 5.70521C20.2079 5.8421 20.4929 6.03376 20.6829 6.29387C20.7914 6.41707 20.8321 6.56766 20.8321 6.71825C20.8321 6.90991 20.7643 7.07418 20.6014 7.19739C20.3571 7.40274 19.9771 7.37536 19.76 7.15632C19.7215 7.11737 19.6807 7.0808 19.6379 7.0468C19.5629 6.96626 19.4698 6.9052 19.3664 6.86884C19.1971 6.78789 19.0107 6.75028 18.8236 6.75932C18.525 6.75932 18.3893 6.82777 18.3214 6.90991C18.2671 6.97835 18.2671 7.06049 18.2671 7.11525C18.2671 7.1837 18.2807 7.25215 18.3214 7.30691C18.3214 7.3206 18.335 7.33429 18.3486 7.34798C18.43 7.41643 18.5114 7.47119 18.6336 7.51226C18.7557 7.55332 18.9457 7.60808 19.19 7.67653C19.3049 7.71395 19.4135 7.74726 19.5157 7.77647L19.6379 7.81343C19.8007 7.86819 19.9364 7.92295 20.0586 7.97771C20.3029 8.10091 20.52 8.26519 20.6829 8.49792C20.8593 8.73064 20.9543 9.03182 20.9543 9.41513C20.9543 9.48358 20.9498 9.55203 20.9407 9.62048C20.9058 9.8762 20.8026 10.1175 20.6421 10.3187C20.4439 10.5718 20.1812 10.7658 19.8821 10.8799C19.8007 10.921 19.7193 10.9484 19.6379 10.9621V11.7561C19.6379 12.0504 19.4207 12.2996 19.1303 12.3488H18.829C18.6885 12.3262 18.5604 12.2542 18.4675 12.1454C18.3746 12.0367 18.3229 11.8983 18.3214 11.7547M25.6337 9.61911C25.8781 8.41579 25.7989 7.16844 25.4044 6.00638L31.1722 9.61911H25.6337ZM12.5088 6.10495C12.1404 7.23943 12.0726 8.45138 12.312 9.62048H6.897L12.5088 6.10495ZM8.14286 31.5241H6.78571V17.8343H8.14286V31.5241ZM14.9286 31.5241H12.2143V17.8343H25.7857V31.5241H23.0714V22.8174C23.0714 22.3383 22.6779 21.9413 22.2029 21.9413H15.7836C15.3086 21.9413 14.9286 22.3246 14.9286 22.8037V31.5241ZM29.8571 17.8343H31.2143V31.5241H29.8571V17.8343Z" fill="white"/>
</svg>
